{"title":"Adhiradi Nai Irandu Thirudargal.tamil dubbed.350MB.demon.mastito","uid":6191186,"size":366993057,"categoryP":"video","categoryS":"movies","magnet":"?xt=urn:btih:60bb74923ac1197c7731dd11937b3e6e58c4f2af&amp;dn=Adhiradi+Nai+Irandu+Thirudargal.tamil+dubbed.350MB.demon.mastito&amp;tr=udp%3A%2F%2Ftracker.openbittorrent.com%3A80&amp;tr=udp%3A%2F%2Fopen.demonii.com%3A1337&amp;tr=udp%3A%2F%2Ftracker.coppersurfer.tk%3A6969&amp;tr=udp%3A%2F%2Fexodus.desync.com%3A6969","seeders":0,"leechers":1,"uploader":"tdkdemon","files":-1,"time":1298249772,"description":"\n\n$ DEMON TORRENTS $    #######   SERIOUS       UPLOADING!!!!!       ########\n\n\n\n\n\n....ALL THE FILES UPLOADED ARE NOT CREATED BY THE UPLOADER....\n\n\nrelease info:\n\n\n\nAdhiradi Nai Irandu Thirudargal.tamil dubbed.350MB.tdm.mastitorrents\n\n\n\nUPLOADER : DEMON~THE DARK MASTER(TDM)\n\n\n\n\n\ngenre : tamil comedy\n\nFormat : MPEG-4\nFormat profile : Base Media / Version 2\nCodec ID : mp42\nFile size : 350 MiB\nDuration : 1h 18mn\nOverall bit rate : 621 Kbps\n\n\nVideo\nID : 1\nFormat : AVC\nFormat/Info : Advanced Video Codec\nFormat profile : &lt;a class=&quot;__cf_email__&quot; href=&quot;/cdn-cgi/l/email-protection&quot; data-cfemail=&quot;6d200c04032d215f435f&quot;&gt;[email&amp;#160;protected]&lt;/a&gt;&lt;script cf-hash='f9e31' type=&quot;text/javascript&quot;&gt;\n/* &lt;![CDATA[ */!function(){try{var t=&quot;currentScript&quot;in document?document.currentScript:function(){for(var t=document.getElementsByTagName(&quot;script&quot;),e=t.length;e--;)if(t[e].getAttribute(&quot;cf-hash&quot;))return t[e]}();if(t&amp;&amp;t.previousSibling){var e,r,n,i,c=t.previousSibling,a=c.getAttribute(&quot;data-cfemail&quot;);if(a){for(e=&quot;&quot;,r=parseInt(a.substr(0,2),16),n=2;a.length-n;n+=2)i=parseInt(a.substr(n,2),16)^r,e+=String.fromCharCode(i);e=document.createTextNode(e),c.parentNode.replaceChild(e,c)}}}catch(u){}}();/* ]]&gt; */&lt;/script&gt;\nFormat settings, CABAC : Yes\nFormat settings, ReFrames : 16 frames\nCodec ID : avc1\nCodec ID/Info : Advanced Video Coding\nDuration : 1h 18mn\nBit rate mode : Variable\nBit rate : 457 Kbps\nWidth : 352 pixels\nHeight : 288 pixels\nDisplay aspect ratio : 2.499\nOriginal display aspect ratio : 2.500\nFrame rate mode : Variable\nFrame rate : 25.000 fps\nMinimum frame rate : 12.500 fps\nMaximum frame rate : 25.000 fps\nStandard : PAL\nColor space : YUV\nChroma subsampling : 4:2:0\nBit depth : 8 bits\nScan type : Progressive\nBits/(Pixel*Frame) : 0.180\nStream size : 257 MiB (74%)\nWriting library : x264 core 79\n\n\nAudio\nID : 2\nFormat : AAC\nFormat/Info : Advanced Audio Codec\nFormat profile : LC\nCodec ID : 40\nDuration : 1h 18mn\nBit rate mode : Variable\nBit rate : 160 Kbps\nMaximum bit rate : 247 Kbps\nChannel(s) : 2 channels\nChannel positions : Front: L R\nSampling rate : 48.0 KHz\nCompression mode : Lossy\nStream size : 90.2 MiB (26%)\n\n\n&lt;&lt;&lt;&lt;&lt;&lt;&lt;    mastitorrents  &gt;&gt;&gt;&gt;&gt;&gt;\n\n\n\n\n\n****check out my other releases****\n  &lt;a href=&quot;\nhttp://thepiratebay.se/user/tdkdemon/&quot; rel=&quot;nofollow&quot; target=&quot;_NEW&quot;&gt;\nhttp://thepiratebay.se/user/tdkdemon/&lt;/a&gt;\n\n\n\n\n                  \n\n\n\n@@@@@  SEED    SEED     SEED        AFTER     &quot;YOU&quot;     DOWNLOAD     !!!!!!!@@@@@\n\n\n\n\n\nSCREEN SHOTS :\n \n &lt;a href=&quot;\nhttp://img151.imageshack.us/img151/1038/thumbs20110220214102.jpg&quot; rel=&quot;nofollow&quot; target=&quot;_NEW&quot;&gt;\nhttp://img151.imageshack.us/img151/1038/thumbs20110220214102.jpg&lt;/a&gt;\n &lt;a href=&quot;\nhttp://img11.imageshack.us/img11/1711/shammu2011022021h33m50s.jpg&quot; rel=&quot;nofollow&quot; target=&quot;_NEW&quot;&gt;\nhttp://img11.imageshack.us/img11/1711/shammu2011022021h33m50s.jpg&lt;/a&gt;\n &lt;a href=&quot;\nhttp://img141.imageshack.us/img141/7352/shammu2011022021h33m57s.jpg&quot; rel=&quot;nofollow&quot; target=&quot;_NEW&quot;&gt;\nhttp://img141.imageshack.us/img141/7352/shammu2011022021h33m57s.jpg&lt;/a&gt;\n &lt;a href=&quot;\nhttp://img841.imageshack.us/img841/5052/shammu2011022021h34m13s.jpg&quot; rel=&quot;nofollow&quot; target=&quot;_NEW&quot;&gt;\nhttp://img841.imageshack.us/img841/5052/shammu2011022021h34m13s.jpg&lt;/a&gt;\n &lt;a href=&quot;\nhttp://img811.imageshack.us/img811/7635/shammu2011022021h34m40s.jpg&quot; rel=&quot;nofollow&quot; target=&quot;_NEW&quot;&gt;\nhttp://img811.imageshack.us/img811/7635/shammu2011022021h34m40s.jpg&lt;/a&gt;","torrent":{"xt":"urn:btih:60bb74923ac1197c7731dd11937b3e6e58c4f2af","amp;dn":"Adhiradi+Nai+Irandu+Thirudargal.tamil+dubbed.350MB.demon.mastito","amp;tr":["udp%3A%2F%2Ftracker.openbittorrent.com%3A80","udp%3A%2F%2Fopen.demonii.com%3A1337","udp%3A%2F%2Ftracker.coppersurfer.tk%3A6969","udp%3A%2F%2Fexodus.desync.com%3A6969"],"infoHash":"60bb74923ac1197c7731dd11937b3e6e58c4f2af","infoHashBuffer":{"type":"Buffer","data":[96,187,116,146,58,193,25,124,119,49,221,17,147,123,62,110,88,196,242,175]},"announce":[],"urlList":[]}}